# xmcd
#
# Track frame offsets:
#	150
#	12743
#	24166
#	34539
#	49014
#	60122
#	68972
#	79967
#	89185
#	102730
#	110658
#	119523
#	130541
#	140426
#	151346
#	169016
#	178969
#	189409
#	201184
#	215464
#
# Disc length: 2991 seconds
#
# Revision: 0
# Processed by: cddbd v1.5.2PL0 Copyright (c) Steve Scherf et al.
# Submitted via: audiograbber 1.83.01
#
DISCID=1e0bad14
DTITLE=Chet Atkins - This Is Chet Atkins
DYEAR=1970
DGENRE=Country Instrumental
TTITLE0=Mrs. Robison
TTITLE1=Three Little Words
TTITLE2=Blue Angle
TTITLE3=Hawaiian Wedding Song
TTITLE4=Music To Watch Girls By
TTITLE5=Freight Train
TTITLE6=Lady Madonna
TTITLE7=Copper Kettle
TTITLE8=Lara's Theme ( From Dr. Zhivago )
TTITLE9=Country Gentleman
TTITLE10=Yakety Axe
TTITLE11=Both Sides Now
TTITLE12=Charlie Brown
TTITLE13=Django's Castle ( Manoir de mes reves )
TTITLE14=Ode To Billy Joe
TTITLE15=Tambone
TTITLE16=Steeplechase Lane
TTITLE17=From Nashville With Love
TTITLE18=Yellow Bird
TTITLE19=Windy And Warm
EXTD=
EXTT0=
EXTT1=
EXTT2=
EXTT3=
EXTT4=
EXTT5=
EXTT6=
EXTT7=
EXTT8=
EXTT9=
EXTT10=
EXTT11=
EXTT12=
EXTT13=
EXTT14=
EXTT15=
EXTT16=
EXTT17=
EXTT18=
EXTT19=
PLAYORDER=
